<svg width="24" height="24" viewBox="0 0 24 24" fill="none" xmlns="http://www.w3.org/2000/svg">
<path d="M4.50386 11.6797H8.02872C8.30627 11.6797 8.53258 11.9093 8.53258 12.1957V20.484C8.53258 20.7682 8.3084 21 8.02872 21H4.50386C4.22631 21 4 20.7704 4 20.484V12.1935C4.00213 11.9093 4.22631 11.6797 4.50386 11.6797ZM9.76446 19.052V13.1139C9.7666 11.6513 10.1658 10.2193 10.9195 8.97743C11.3785 8.22533 12.4076 7.02067 12.984 6.39757C13.1121 6.25765 13.5776 5.84662 13.5776 5.62143C13.5776 5.33283 13.6096 4.86715 13.6202 3.99918C13.6267 3.44823 14.0643 2.99566 14.6023 3.00003H14.6258C15.5674 3.01752 15.8684 3.90954 15.8684 3.90954C15.8684 3.90954 16.6733 5.53616 15.9218 7.52571C15.2877 9.20699 15.1574 9.34254 15.1574 9.34254C15.1574 9.34254 14.9525 9.64644 15.6015 9.63332C15.6015 9.63332 19.5641 9.61583 19.7007 9.61583C19.9932 9.61583 20.9262 9.88912 20.8728 11.1069C20.8344 12.0077 20.2878 12.3225 20.0081 12.4253C19.9718 12.4384 19.9526 12.4799 19.9676 12.5171C19.974 12.5324 19.9846 12.5455 19.9996 12.5542C20.2857 12.7248 20.8707 13.1555 20.8579 13.8158C20.8408 14.6159 20.5269 14.9111 19.8736 15.0948C19.8373 15.1035 19.8138 15.1428 19.8245 15.18C19.8288 15.1997 19.8416 15.215 19.8565 15.2237C20.1042 15.368 20.5291 15.72 20.5034 16.4328C20.4778 17.1586 19.9654 17.4144 19.6857 17.5019C19.6495 17.5128 19.6281 17.5522 19.6388 17.5893C19.643 17.6046 19.6537 17.6199 19.6665 17.6287C19.8437 17.7533 20.1063 18.0353 20.0935 18.6147C20.0871 18.9208 19.9868 19.1438 19.8608 19.3034C19.6623 19.5548 19.3506 19.686 19.0346 19.6882L10.2427 19.7057C10.2406 19.7035 9.76446 19.7057 9.76446 19.052V19.052Z" fill="#2196F3"/>
</svg>
